<svg width="128" height="24" viewBox="0 0 128 24" fill="none" xmlns="http://www.w3.org/2000/svg">
<path d="M34.9588 17.7818C36.3571 16.6473 47.34 7.99998 52.6566 3.81816H41.5135C38.4182 6.25453 32.0528 11.3018 31.3537 12C30.4797 12.8727 29.6057 13.6363 27.0931 13.6363H19.4459V20.2909H28.9503C31.2444 20.2909 33.2108 19.2 34.9588 17.7818Z" fill="url(#paint0_linear_1_16)"/>
<path d="M17.6979 6.32726C16.2995 7.4618 5.31667 16.1091 3.05176e-05 20.2909H11.1431C14.2384 17.8545 20.6038 12.8073 21.303 12.1091C22.177 11.2363 23.0509 10.4727 25.5636 10.4727H33.2108V3.81816H23.7064C21.4122 3.81816 19.4458 4.90907 17.6979 6.32726Z" fill="#DCE4E5"/>
<path d="M17.6979 6.32726C16.2995 7.4618 5.31667 16.1091 3.05176e-05 20.2909H11.1431C14.2384 17.8545 20.6038 12.8073 21.303 12.1091C22.177 11.2363 23.0509 10.4727 25.5636 10.4727H33.2108V3.81816H23.7064C21.4122 3.81816 19.4458 4.90907 17.6979 6.32726Z" fill="url(#paint1_linear_1_16)"/>
<path d="M71.1283 4.52859V19H69.4324L61.5466 7.63769H61.4053V19H59.6529V4.52859H61.3488L69.2628 15.9192H69.4041V4.52859H71.1283ZM78.9593 19.2261C77.9135 19.2261 77.0114 18.9953 76.253 18.5336C75.4993 18.0673 74.9175 17.4172 74.5077 16.5834C74.1025 15.7449 73.9 14.7698 73.9 13.658C73.9 12.5463 74.1025 11.5664 74.5077 10.7185C74.9175 9.86587 75.4875 9.20165 76.2177 8.72587C76.9525 8.24537 77.8099 8.00512 78.7897 8.00512C79.355 8.00512 79.9132 8.09934 80.4644 8.28777C81.0155 8.4762 81.5172 8.7824 81.9695 9.20636C82.4217 9.62562 82.7821 10.1815 83.0506 10.874C83.3191 11.5664 83.4534 12.4191 83.4534 13.4319V14.1385H75.0871V12.697H81.7575C81.7575 12.0846 81.635 11.5382 81.39 11.0577C81.1498 10.5772 80.8059 10.198 80.3584 9.92004C79.9156 9.64211 79.3927 9.50314 78.7897 9.50314C78.1255 9.50314 77.5508 9.66802 77.0656 9.99777C76.5851 10.3228 76.2153 10.7468 75.9562 11.2697C75.6971 11.7926 75.5676 12.3531 75.5676 12.9514V13.9124C75.5676 14.7321 75.7089 15.4269 75.9915 15.9969C76.2789 16.5622 76.6769 16.9932 77.1857 17.29C77.6945 17.5821 78.2857 17.7281 78.9593 17.7281C79.3974 17.7281 79.7931 17.6669 80.1464 17.5444C80.5044 17.4172 80.813 17.2288 81.0721 16.9791C81.3312 16.7247 81.5314 16.4091 81.6727 16.0322L83.2838 16.4845C83.1142 17.0309 82.8292 17.5114 82.4288 17.926C82.0284 18.3358 81.5337 18.6561 80.9449 18.8869C80.356 19.1131 79.6942 19.2261 78.9593 19.2261ZM86.2162 19V4.52859H87.8838V9.87058H88.0251C88.1476 9.68215 88.3172 9.4419 88.5339 9.14983C88.7553 8.85306 89.0709 8.58926 89.4808 8.35843C89.8953 8.12289 90.4559 8.00512 91.1625 8.00512C92.0764 8.00512 92.8819 8.23359 93.5791 8.69054C94.2763 9.14748 94.8204 9.79521 95.2114 10.6337C95.6024 11.4722 95.7979 12.4615 95.7979 13.6015C95.7979 14.7509 95.6024 15.7472 95.2114 16.5905C94.8204 17.429 94.2786 18.079 93.5862 18.5407C92.8937 18.9976 92.0952 19.2261 91.1908 19.2261C90.4936 19.2261 89.9353 19.1107 89.5161 18.8799C89.0968 18.6443 88.7741 18.3782 88.548 18.0814C88.3219 17.7799 88.1476 17.5302 88.0251 17.3324H87.8273V19H86.2162ZM87.8555 13.5732C87.8555 14.3929 87.9757 15.116 88.2159 15.7425C88.4562 16.3643 88.8071 16.8519 89.2688 17.2052C89.7304 17.5538 90.2957 17.7281 90.9646 17.7281C91.6618 17.7281 92.2436 17.5444 92.71 17.1769C93.181 16.8048 93.5343 16.3055 93.7699 15.6789C94.0101 15.0477 94.1303 14.3458 94.1303 13.5732C94.1303 12.8101 94.0125 12.1223 93.7769 11.5099C93.5461 10.8928 93.1952 10.4052 92.7241 10.0472C92.2577 9.6845 91.6712 9.50314 90.9646 9.50314C90.2863 9.50314 89.7163 9.67508 89.2546 10.019C88.793 10.3581 88.4444 10.8339 88.2088 11.4463C87.9733 12.054 87.8555 12.763 87.8555 13.5732ZM102.899 19.2261C101.854 19.2261 100.951 18.9953 100.193 18.5336C99.4393 18.0673 98.8575 17.4172 98.4477 16.5834C98.0425 15.7449 97.84 14.7698 97.84 13.658C97.84 12.5463 98.0425 11.5664 98.4477 10.7185C98.8575 9.86587 99.4275 9.20165 100.158 8.72587C100.893 8.24537 101.75 8.00512 102.73 8.00512C103.295 8.00512 103.853 8.09934 104.404 8.28777C104.956 8.4762 105.457 8.7824 105.909 9.20636C106.362 9.62562 106.722 10.1815 106.991 10.874C107.259 11.5664 107.393 12.4191 107.393 13.4319V14.1385H99.0271V12.697H105.697C105.697 12.0846 105.575 11.5382 105.33 11.0577C105.09 10.5772 104.746 10.198 104.298 9.92004C103.856 9.64211 103.333 9.50314 102.73 9.50314C102.066 9.50314 101.491 9.66802 101.006 9.99777C100.525 10.3228 100.155 10.7468 99.8962 11.2697C99.6371 11.7926 99.5076 12.3531 99.5076 12.9514V13.9124C99.5076 14.7321 99.6489 15.4269 99.9315 15.9969C100.219 16.5622 100.617 16.9932 101.126 17.29C101.634 17.5821 102.226 17.7281 102.899 17.7281C103.337 17.7281 103.733 17.6669 104.086 17.5444C104.444 17.4172 104.753 17.2288 105.012 16.9791C105.271 16.7247 105.471 16.4091 105.613 16.0322L107.224 16.4845C107.054 17.0309 106.769 17.5114 106.369 17.926C105.968 18.3358 105.474 18.6561 104.885 18.8869C104.296 19.1131 103.634 19.2261 102.899 19.2261ZM109.93 19V8.14645H111.541V9.78578H111.654C111.852 9.24876 112.21 8.81302 112.728 8.47855C113.246 8.14409 113.831 7.97686 114.481 7.97686C114.603 7.97686 114.756 7.97921 114.94 7.98393C115.124 7.98864 115.263 7.9957 115.357 8.00512V9.70099C115.3 9.68686 115.171 9.66566 114.968 9.6374C114.77 9.60442 114.561 9.58793 114.339 9.58793C113.812 9.58793 113.341 9.69864 112.926 9.92004C112.516 10.1367 112.191 10.4382 111.951 10.8245C111.715 11.2061 111.598 11.6418 111.598 12.1317V19H109.93ZM124.174 14.5625V8.14645H125.841V19H124.174V17.1628H124.061C123.806 17.714 123.41 18.1827 122.873 18.569C122.336 18.9505 121.658 19.1413 120.838 19.1413C120.16 19.1413 119.557 18.9929 119.029 18.6962C118.502 18.3947 118.087 17.9424 117.786 17.3395C117.484 16.7318 117.334 15.9663 117.334 15.043V8.14645H119.001V14.9299C119.001 15.7213 119.223 16.3526 119.665 16.8236C120.113 17.2947 120.683 17.5302 121.375 17.5302C121.79 17.5302 122.212 17.4243 122.64 17.2123C123.074 17.0003 123.436 16.6752 123.728 16.2371C124.025 15.799 124.174 15.2408 124.174 14.5625Z" fill="white"/>
<defs>
<linearGradient id="paint0_linear_1_16" x1="19.4459" y1="20.2909" x2="36.0512" y2="20.2909" gradientUnits="userSpaceOnUse">
<stop stop-color="#DCE4E5" stop-opacity="0.1"/>
<stop offset="1" stop-color="#DCE4E5"/>
</linearGradient>
<linearGradient id="paint1_linear_1_16" x1="31.5721" y1="3.81816" x2="16.6054" y2="3.81816" gradientUnits="userSpaceOnUse">
<stop stop-color="#DCE4E5" stop-opacity="0"/>
<stop offset="1" stop-color="#DCE4E5"/>
</linearGradient>
</defs>
</svg>
